#!OML:ASF Y:\EmotionMaleHayes\Project 1\Capture day 1\Session 1\Male1.ASF
:FULLY-SPECIFIED
:DEGREES
96
root 6.83774 15.8069 -1.31065 76.4806 83.2779 80.0683
lowerback 14.295 1.28276 -7.93794
upperback 2.82517 0.541782 -2.95415
thorax -5.04875 0.450037 1.24647
lowerneck -31.8379 0.334227 0.507734
upperneck 17.4431 -0.494747 2.95741
head 10.7759 0.232291 0.928208
rclavicle -5.26779e-015 -3.77691e-014
rhumerus -58.5731 14.353 -98.7705
rradius 88.5954
rwrist -17.9193
rhand -28.5414 -30.1021
rfingers 7.12502
rthumb -1.90877 -60.0733
lclavicle -5.26779e-015 -3.77691e-014
lhumerus -54.9034 -26.8208 95.7088
lradius 83.5841
lwrist 23.2394
lhand -39.8164 -37.2252
lfingers 7.12502
lthumb -12.7908 -7.63708
rfemur -2.64782 -7.22631 3.88473
rtibia 65.8092
rfoot 177.017 11.8546
rtoes 25.1634
lfemur -19.1698 3.74225 -33.8554
ltibia 44.9029
lfoot -20.7935 6.59456
ltoes 9.81417
97
root 7.2005 15.7834 -1.31254 78.6617 82.8137 82.534
lowerback 14.5808 1.1519 -8.641
upperback 2.9526 0.249581 -3.11241
thorax -5.04346 0.320848 1.52229
lowerneck -31.5275 0.476344 0.588785
upperneck 17.2327 -0.353579 3.07606
head 10.6454 0.314446 0.980076
rclavicle -3.8763e-015 -3.97569e-015
rhumerus -60.0232 13.7495 -98.3522
rradius 86.6304
rwrist -18.3513
rhand -29.2032 -30.4227
rfingers 7.12502
rthumb -2.54791 -60.3872
lclavicle -3.8763e-015 -3.97569e-015
lhumerus -52.1468 -27.8281 95.2552
lradius 83.3052
lwrist 23.2014
lhand -40.0605 -37.2704
lfingers 7.12502
lthumb -13.0261 -7.69715
rfemur -5.15367 -7.46679 3.47255
rtibia 64.4749
rfoot 177.148 10.5571
rtoes 23.3082
lfemur -17.1136 4.16295 -34.3908
ltibia 44.8106
lfoot -22.3953 6.03022
ltoes 9.36821
98
root 7.55067 15.777 -1.30642 79.5894 82.5276 83.874
lowerback 14.9753 1.02624 -9.19926
upperback 3.13117 -0.022929 -3.24807
thorax -5.03878 0.198685 1.73783
lowerneck -31.2059 0.656099 0.770828
upperneck 17.119 -0.215364 3.23101
head 10.5499 0.408288 1.02876
rclavicle 3.97569e-015 1.07344e-014
rhumerus -61.5368 13.2266 -98.0623
rradius 85.122
rwrist -19.3002
rhand -29.8466 -31.5412
rfingers 7.12502
rthumb -3.16929 -61.4974
lclavicle 3.97569e-015 1.07344e-014
lhumerus -49.3071 -28.4608 94.5776
lradius 83.2377
lwrist 22.2424
lhand -40.0466 -36.2822
lfingers 7.12502
lthumb -13.0127 -6.70804
rfemur -7.69931 -7.51689 3.47205
rtibia 63.6141
rfoot 177.663 8.8641
rtoes 23.8394
lfemur -14.8579 4.70084 -34.5661
ltibia 44.4954
lfoot -23.7181 5.51623
ltoes 8.37118
99
root 7.89349 15.7852 -1.30117 81.7448 82.0179 86.3578
lowerback 15.3689 0.864507 -9.90046
upperback 3.28209 -0.371751 -3.44816
thorax -5.0484 0.043281 1.97942
lowerneck -31.0016 0.757682 0.754384
upperneck 17.1488 -0.118393 3.44406
head 10.5274 0.479086 1.12506
rclavicle 6.36111e-015 4.37326e-014
rhumerus -62.9649 12.8366 -97.7198
rradius 84.3343
rwrist -20.7232
rhand -30.3921 -31.3523
rfingers 7.12502
rthumb -3.69615 -61.3
lclavicle 6.36111e-015 4.37326e-014
lhumerus -46.4676 -28.8608 93.9301
lradius 83.5295
lwrist 21.0004
lhand -39.9968 -38.0553
lfingers 7.12502
lthumb -12.9647 -8.47814
rfemur -10.2802 -7.6931 3.14819
rtibia 63.1925
rfoot 177.382 8.72601
rtoes 20.9638
lfemur -12.6814 5.07358 -35.0373
ltibia 44.1194
lfoot -24.7694 5.02105
ltoes 7.65498
100
root 8.23481 15.8089 -1.29277 83.6012 81.1131 88.4472
lowerback 15.7828 0.787258 -11.0576
upperback 3.33394 -0.701092 -3.70056
thorax -5.16238 -0.0879907 2.41296
lowerneck -30.9783 0.880394 0.765156
upperneck 17.4114 0.0155486 3.52276
head 10.6192 0.553787 1.17831
rclavicle -1.78906e-015 -1.03368e-014
rhumerus -64.4115 12.6567 -97.4014
rradius 83.6098
rwrist -21.4626
rhand -30.2248 -31.4718
rfingers 7.12502
rthumb -3.53457 -61.4222
lclavicle -1.78906e-015 -1.03368e-014
lhumerus -43.8789 -29.1205 93.3927
lradius 84.4588
lwrist 20.0037
lhand -39.6784 -38.4908
lfingers 7.12502
lthumb -12.6577 -8.89436
rfemur -12.9983 -7.99661 2.44649
rtibia 63.0795
rfoot 177.742 8.17789
rtoes 23.4024
lfemur -10.5379 5.43681 -35.8653
ltibia 43.5531
lfoot -25.7197 4.52123
ltoes 7.30323
101
root 8.58254 15.8458 -1.27728 84.9725 80.4593 89.8781
lowerback 16.0477 0.701635 -12.0827
upperback 3.26755 -1.02338 -3.82523
thorax -5.31515 -0.215167 2.90788
lowerneck -31.0598 1.05421 0.87545
upperneck 17.8577 0.196582 3.48282
head 10.7962 0.643324 1.18392
rclavicle -1.2921e-015 1.03368e-014
rhumerus -66.1813 12.5976 -97.1863
rradius 83.2481
rwrist -22.0269
rhand -29.7966 -31.1213
rfingers 7.12502
rthumb -3.12107 -61.0782
lclavicle -1.2921e-015 1.03368e-014
lhumerus -41.6454 -29.1893 92.9577
lradius 85.5485
lwrist 19.0114
lhand -38.8935 -38.9177
lfingers 7.12502
lthumb -11.901 -9.27592
rfemur -15.8964 -8.4531 2.24634
rtibia 63.3826
rfoot 177.646 8.26771
rtoes 20.993
lfemur -8.5311 5.73445 -36.3207
ltibia 42.8317
lfoot -26.4111 4.23794
ltoes 5.94852
102
root 8.91972 15.8891 -1.25408 90.5937 80.4677 95.3591
lowerback 16.4394 0.309444 -12.3976
upperback 3.07261 -1.67475 -3.71513
thorax -5.63736 -0.50466 3.33405
lowerneck -31.1142 1.1879 1.02451
upperneck 18.3142 0.353069 3.25676
head 10.9738 0.698041 1.11013
rclavicle -2.54444e-014 -6.36111e-014
rhumerus -68.1925 12.5185 -97.0358
rradius 83.1633
rwrist -22.6162
rhand -29.7585 -30.3255
rfingers 7.12502
rthumb -3.0842 -60.2829
lclavicle -2.54444e-014 -6.36111e-014
lhumerus -39.6658 -29.1964 92.7178
lradius 86.5643
lwrist 17.8234
lhand -38.3683 -39.3889
lfingers 7.12502
lthumb -11.3945 -9.71845
rfemur -18.7602 -9.80585 2.8936
rtibia 64.0914
rfoot 177.654 7.62004
rtoes 20.8475
lfemur -6.89096 5.12502 -36.1541
ltibia 42.288
lfoot -26.8742 4.14341
ltoes 4.26674
103
root 9.30232 15.9793 -1.23906 90.2269 80.5465 95.7506
lowerback 17.2209 0.295024 -12.7366
upperback 3.12454 -1.86023 -3.56346
thorax -5.95978 -0.568021 3.73439
lowerneck -31.2089 1.29931 1.22787
upperneck 18.8671 0.497443 2.85866
head 11.1968 0.727793 0.962591
rclavicle -9.93923e-016 3.26007e-014
rhumerus -70.1861 12.4905 -96.7149
rradius 83.3781
rwrist -22.0832
rhand -28.656 -30.7759
rfingers 7.12502
rthumb -2.01952 -60.7461
lclavicle -9.93923e-016 3.26007e-014
lhumerus -37.8742 -29.1729 92.7196
lradius 87.5431
lwrist 16.4463
lhand -38.3679 -39.4212
lfingers 7.12502
lthumb -11.3941 -9.75082
rfemur -20.044 -9.59943 3.44696
rtibia 65.9912
rfoot 177.754 8.00678
rtoes 19.2331
lfemur -3.58834 5.39068 -35.6691
ltibia 40.6054
lfoot -27.2509 3.89344
ltoes 3.68611
104
root 9.67341 16.0106 -1.22145 96.9189 80.6508 101.261
lowerback 16.0567 -0.298507 -12.8406
upperback 2.74718 -2.525 -3.29517
thorax -5.61891 -0.910701 4.19356
lowerneck -31.3407 1.48339 1.22825
upperneck 19.3581 0.780259 2.67878
head 11.4024 0.833692 0.953522
rclavicle 6.4605e-015 -2.26615e-014
rhumerus -72.1875 12.6677 -96.3745
rradius 83.5182
rwrist -21.8237
rhand -28.1322 -30.255
rfingers 7.12502
rthumb -1.51363 -60.2294
lclavicle 6.4605e-015 -2.26615e-014
lhumerus -36.1915 -29.0538 92.8574
lradius 88.5215
lwrist 15.1678
lhand -38.6279 -40.1515
lfingers 7.12502
lthumb -11.6448 -10.4951
rfemur -23.7821 -11.0776 4.29607
rtibia 67.3012
rfoot 177.631 8.3266
rtoes 18.7647
lfemur -2.80233 3.9835 -35.6113
ltibia 39.5646
lfoot -27.3332 3.76161
ltoes 3.44666
